<svg width="56" height="64" viewBox="0 0 56 64" fill="none" xmlns="http://www.w3.org/2000/svg">
<g id="Main Animation" clip-path="url(#clip0_128_71)">
<g id="Icon add">
<g id="Ellipse 4" filter="url(#filter0_d_128_71)">
<circle cx="28.5" cy="28.5" r="25.5" fill="#735BF2"/>
</g>
<path id="Shape" d="M37.7177 27.7301H29.5092V19.5216C29.5092 19.0966 29.1646 18.752 28.7396 18.752C28.3146 18.752 27.9701 19.0966 27.9701 19.5216V27.7301H19.7616C19.3365 27.7301 18.992 28.0746 18.992 28.4996C18.992 28.9247 19.3365 29.2692 19.7616 29.2692H27.9701V37.4777C27.9701 37.9027 28.3146 38.2473 28.7396 38.2473C29.1646 38.2473 29.5092 37.9027 29.5092 37.4777V29.2692H37.7177C38.1427 29.2692 38.4873 28.9247 38.4873 28.4996C38.4873 28.0746 38.1427 27.7301 37.7177 27.7301Z" fill="white" stroke="white"/>
</g>
</g>
<defs>
<filter id="filter0_d_128_71" x="-27" y="-24" width="111" height="111" filterUnits="userSpaceOnUse" color-interpolation-filters="sRGB">
<feFlood flood-opacity="0" result="BackgroundImageFix"/>
<feColorMatrix in="SourceAlpha" type="matrix" values="0 0 0 0 0 0 0 0 0 0 0 0 0 0 0 0 0 0 127 0" result="hardAlpha"/>
<feOffset dy="3"/>
<feGaussianBlur stdDeviation="15"/>
<feColorMatrix type="matrix" values="0 0 0 0 0 0 0 0 0 0 0 0 0 0 0 0 0 0 0.0784314 0"/>
<feBlend mode="normal" in2="BackgroundImageFix" result="effect1_dropShadow_128_71"/>
<feBlend mode="normal" in="SourceGraphic" in2="effect1_dropShadow_128_71" result="shape"/>
</filter>
<clipPath id="clip0_128_71">
<rect width="56" height="64" fill="white"/>
</clipPath>
</defs>
</svg>
